<svg version="1.1" id="Layer_1" xmlns="http://www.w3.org/2000/svg" xmlns:xlink="http://www.w3.org/1999/xlink" x="0px" y="0px"
	 width="100%" viewBox="0 0 980 980" enable-background="new 0 0 980 980" xml:space="preserve">
<path fill="#DBDBDB" opacity="1.000000" stroke="none" 
	d="
M548.000000,981.000000 
	C365.333344,981.000000 183.166672,981.000000 1.000000,981.000000 
	C1.000000,654.333313 1.000000,327.666656 1.000000,1.000000 
	C327.666656,1.000000 654.333313,1.000000 981.000000,1.000000 
	C981.000000,327.666656 981.000000,654.333313 981.000000,981.000000 
	C836.833313,981.000000 692.666687,981.000000 548.000000,981.000000 
M376.183502,609.152039 
	C375.455658,612.321594 373.974152,615.540833 374.179260,618.648804 
	C374.475769,623.141235 375.994324,627.552979 376.996124,632.832886 
	C376.997437,634.222717 376.998718,635.612610 376.965820,637.840576 
	C375.999786,643.032776 374.778259,648.161987 377.748444,653.250671 
	C378.918182,655.254700 379.272919,657.734436 379.185455,660.054993 
	C378.458130,661.449768 377.189514,662.812073 377.103394,664.245361 
	C376.829102,668.811157 376.994629,673.403381 376.436462,678.299744 
	C375.950714,679.194275 375.464996,680.088867 374.394653,681.303162 
	C371.957672,684.595520 369.520721,687.887878 367.023224,691.116577 
	C367.023224,691.116577 367.062469,691.038086 366.424347,691.109436 
	C365.952698,691.735291 365.481049,692.361145 364.502014,693.428040 
	C359.317017,697.297058 354.065796,701.080872 348.959045,705.050537 
	C331.470245,718.645691 314.680389,733.005981 300.901581,750.510071 
	C296.402649,756.225220 292.256104,762.217834 287.158417,768.078186 
	C237.824738,780.568420 188.499512,793.092102 139.154907,805.538879 
	C95.939865,816.439514 59.871681,838.578430 32.097168,873.659912 
	C30.315372,875.910522 29.112129,879.275513 29.071821,882.142212 
	C28.804928,901.124207 28.931252,920.111572 28.925905,939.097229 
	C28.923979,945.933289 28.919367,945.935425 35.535965,945.935425 
	C116.141716,945.935547 196.747467,945.937622 277.353210,945.924927 
	C280.513123,945.924438 283.673004,945.780212 287.783264,945.893616 
	C323.247162,945.937073 358.711090,945.980530 395.077148,945.995544 
	C410.622650,945.997864 426.168396,946.041992 441.713409,945.956238 
	C443.978027,945.943665 446.239227,945.310730 449.210419,945.524719 
	C450.685211,945.658264 452.159912,945.907288 453.634796,945.908386 
	C483.314728,945.929993 512.994629,945.923157 543.664795,945.959534 
	C560.580688,945.973022 577.496765,946.023254 594.412354,945.953247 
	C596.519653,945.944519 598.624268,945.297363 601.390564,945.518066 
	C603.365417,945.676392 605.340210,945.970520 607.315186,945.972717 
	C635.451233,946.004150 663.587219,946.012512 691.723267,945.983215 
	C697.209106,945.977478 702.694885,945.788086 709.086914,945.808838 
	C709.751709,945.853638 710.416443,945.937622 711.081238,945.937683 
	C790.237610,945.940613 869.394043,945.939453 948.550415,945.918457 
	C949.968567,945.918091 951.386719,945.675598 952.615417,945.563416 
	C952.842163,944.694702 952.999329,944.372864 952.999695,944.050964 
	C953.032227,917.388428 953.089783,890.725708 952.981140,864.063660 
	C952.974670,862.466736 951.999146,860.524963 950.858582,859.332825 
	C928.183289,835.631104 901.357544,818.174500 869.834717,809.153137 
	C836.721497,799.676758 803.187744,791.662720 769.805542,783.135803 
	C748.841370,777.781067 727.817871,772.658569 706.391418,767.056458 
	C703.829041,763.429871 701.341003,759.747925 698.692261,756.185608 
	C681.081482,732.501343 658.729797,713.850769 635.129395,696.552429 
	C632.235168,694.431030 629.012451,692.757690 625.630127,690.263367 
	C622.422607,685.483337 619.215149,680.703247 616.007874,675.106812 
	C616.006042,673.737854 616.004272,672.368958 616.757019,670.765015 
	C616.919617,666.815063 618.629150,661.953125 616.942932,659.093201 
	C612.594421,651.717651 613.914551,644.491333 615.002441,636.144287 
	C615.318787,631.088318 615.635132,626.032288 615.971313,620.043945 
	C615.972595,609.960571 615.973938,599.877136 615.984375,589.087280 
	C619.493103,584.310486 623.198730,579.664551 626.476562,574.734253 
	C641.110352,552.723267 652.480347,529.206604 656.989929,502.980438 
	C658.167664,496.131348 661.945068,493.826782 667.465759,491.883789 
	C681.609436,486.906067 694.241882,479.201813 704.575684,468.404480 
	C716.352295,456.099762 723.999817,441.530060 726.841492,424.398895 
	C728.880249,412.108002 727.506836,400.275299 724.628845,388.432281 
	C722.163025,378.285187 716.784302,369.870728 709.127014,362.265808 
	C713.070068,353.878876 717.013062,345.491974 721.037781,336.931183 
	C724.043030,338.562378 726.494568,339.963684 729.007568,341.244446 
	C737.957825,345.806030 747.108765,349.876801 757.406738,349.824402 
	C766.266235,349.779297 772.385376,344.565979 772.981873,336.599060 
	C759.772400,337.821350 750.538635,331.196106 743.170898,321.129700 
	C735.386597,310.494141 730.624146,298.442810 727.002197,285.906097 
	C725.279297,279.942535 723.934692,273.869720 722.226196,267.081024 
	C735.285583,269.040894 746.746643,268.546509 756.542175,260.572266 
	C766.120483,252.774841 771.025696,242.413971 773.479858,229.908417 
	C771.998962,230.355591 771.367188,230.487488 770.782166,230.731461 
	C747.996765,240.233948 724.241211,229.320618 716.438660,205.692474 
	C711.067932,189.428421 703.216431,174.447739 693.242126,160.568893 
	C674.392883,134.341171 650.370117,113.749405 623.128967,96.758820 
	C615.546814,92.029724 607.618347,87.855927 599.396973,83.169891 
	C605.125427,76.228172 610.102417,69.081360 609.844116,59.879574 
	C609.586975,50.718311 605.879578,43.107647 598.682617,36.491325 
	C592.544739,54.851223 579.487000,63.372211 561.884705,66.368706 
	C548.213013,68.696091 534.638367,67.728470 521.166199,65.367241 
	C511.843018,63.733204 502.674744,61.199596 493.455841,58.990440 
	C479.535950,55.654781 465.607788,57.543655 451.717896,59.008064 
	C426.866821,61.628109 402.757111,67.136047 380.624847,79.243790 
	C356.213898,92.598083 339.247437,112.024780 333.337830,139.791306 
	C331.898010,146.556442 331.848175,153.617386 331.119873,160.938293 
	C329.630341,161.278076 327.870483,161.707581 326.098450,162.079254 
	C313.779907,164.663025 302.814514,169.877228 293.532196,178.517731 
	C278.246613,192.746414 270.818726,211.117447 266.162292,230.830399 
	C260.684753,254.019455 260.088013,277.613068 260.916077,301.317627 
	C261.678009,323.129486 268.105591,343.500153 276.019318,364.260284 
	C275.731842,365.376007 275.621674,366.577362 275.130493,367.594727 
	C266.812653,384.822449 262.904938,402.907593 263.942322,422.088379 
	C264.775146,437.486938 270.416138,450.871521 280.718628,462.106232 
	C294.362915,476.985077 311.506897,485.956665 331.158875,490.208618 
	C334.170135,490.860138 335.740082,492.033722 336.496063,495.468384 
	C339.309845,508.252594 341.905151,521.173096 346.028534,533.561035 
	C352.973389,554.426086 363.007080,573.845032 376.474976,591.092773 
	C376.165405,591.385864 375.855865,591.679016 375.546295,591.972107 
	C375.986115,592.312256 376.425934,592.652344 376.915710,593.925781 
	C376.923889,598.951294 376.932037,603.976807 376.183502,609.152039 
z"/>
<path fill="#F4F4EC" opacity="1.000000" stroke="none" 
	d="
M377.032806,590.996887 
	C363.007080,573.845032 352.973389,554.426086 346.028534,533.561035 
	C341.905151,521.173096 339.309845,508.252594 336.496063,495.468384 
	C335.740082,492.033722 334.170135,490.860138 331.158875,490.208618 
	C311.506897,485.956665 294.362915,476.985077 280.718628,462.106232 
	C270.416138,450.871521 264.775146,437.486938 263.942322,422.088379 
	C262.904938,402.907593 266.812653,384.822449 275.130493,367.594727 
	C275.621674,366.577362 275.731842,365.376007 276.311493,363.633331 
	C281.246185,360.111908 285.459381,360.122498 290.041290,364.755432 
	C294.898346,369.666565 300.078156,374.949707 302.855316,381.092834 
	C310.239166,397.426270 317.023315,414.097137 322.863495,431.041382 
	C327.666473,444.976410 330.774445,459.495636 334.853333,474.567719 
	C334.853333,472.308441 334.962799,470.850372 334.837433,469.412811 
	C330.919708,424.481506 330.399872,379.573456 336.006104,334.734039 
	C339.304382,308.354095 344.697571,282.454346 356.357635,258.334290 
	C367.249939,235.802322 385.177673,221.306335 409.988556,218.145294 
	C429.562042,215.651535 449.515259,215.973480 469.310699,215.485092 
	C475.417633,215.334396 481.642761,216.224335 487.651398,217.440109 
	C490.597443,218.036194 493.878143,219.877899 495.794098,222.170029 
	C504.735016,232.866470 512.266541,244.912064 522.102905,254.657654 
	C554.304565,286.562347 594.160645,302.261719 638.789917,306.693146 
	C642.225037,307.034241 643.560425,308.090240 644.388611,311.434113 
	C655.297913,355.482635 663.972595,399.848969 664.607788,445.521759 
	C666.562866,437.528442 668.119629,429.437439 670.016785,421.427032 
	C674.124939,404.081116 678.291992,386.714844 687.359619,371.095734 
	C693.444458,360.614532 698.165161,358.978638 708.994141,362.964233 
	C716.784302,369.870728 722.163025,378.285187 724.628845,388.432281 
	C727.506836,400.275299 728.880249,412.108002 726.841492,424.398895 
	C723.999817,441.530060 716.352295,456.099762 704.575684,468.404480 
	C694.241882,479.201813 681.609436,486.906067 667.465759,491.883789 
	C661.945068,493.826782 658.167664,496.131348 656.989929,502.980438 
	C652.480347,529.206604 641.110352,552.723267 626.476562,574.734253 
	C623.198730,579.664551 619.493103,584.310486 615.637268,589.520630 
	C613.783875,591.200928 612.221985,592.387024 610.780334,593.704712 
	C601.181580,602.477417 591.608459,611.278137 581.723389,620.212830 
	C578.685303,622.211365 575.980469,624.112366 573.210571,625.913391 
	C566.481567,630.288696 559.722290,634.617554 552.604126,638.979553 
	C545.664734,641.981628 539.211243,645.264526 532.496460,647.875610 
	C525.474487,650.606079 518.250549,652.857971 511.016968,654.986023 
	C507.448242,656.036011 503.658813,656.335815 499.641693,656.975830 
	C498.877380,656.982788 498.440674,656.988953 497.605804,656.933533 
	C494.480530,656.599792 491.753418,656.327576 488.582306,656.038940 
	C482.750244,655.033142 477.362183,654.043884 471.572388,653.039062 
	C466.304504,651.436768 461.291992,650.191650 456.605957,648.184326 
	C449.293823,645.051941 442.202972,641.402893 434.682190,637.894043 
	C428.856201,634.502930 423.340698,631.232056 417.885559,627.863342 
	C414.262268,625.625854 410.725220,623.248657 407.034058,620.619751 
	C404.998871,618.823364 403.079193,617.341125 401.046753,615.559204 
	C400.052734,614.798218 399.171478,614.336914 398.181030,613.546631 
	C394.895874,609.868164 391.764984,606.474182 388.532104,603.180359 
	C384.750275,599.327393 380.879608,595.561584 377.048859,591.567627 
	C377.050201,591.377258 377.032806,590.996887 377.032806,590.996887 
z"/>
<path fill="#7C7C7C" opacity="1.000000" stroke="none" 
	d="
M709.060547,362.615021 
	C698.165161,358.978638 693.444458,360.614532 687.359619,371.095734 
	C678.291992,386.714844 674.124939,404.081116 670.016785,421.427032 
	C668.119629,429.437439 666.562866,437.528442 664.607788,445.521759 
	C663.972595,399.848969 655.297913,355.482635 644.388611,311.434113 
	C643.560425,308.090240 642.225037,307.034241 638.789917,306.693146 
	C594.160645,302.261719 554.304565,286.562347 522.102905,254.657654 
	C512.266541,244.912064 504.735016,232.866470 495.794098,222.170029 
	C493.878143,219.877899 490.597443,218.036194 487.651398,217.440109 
	C481.642761,216.224335 475.417633,215.334396 469.310699,215.485092 
	C449.515259,215.973480 429.562042,215.651535 409.988556,218.145294 
	C385.177673,221.306335 367.249939,235.802322 356.357635,258.334290 
	C344.697571,282.454346 339.304382,308.354095 336.006104,334.734039 
	C330.399872,379.573456 330.919708,424.481506 334.837433,469.412811 
	C334.962799,470.850372 334.853333,472.308441 334.853333,474.567719 
	C330.774445,459.495636 327.666473,444.976410 322.863495,431.041382 
	C317.023315,414.097137 310.239166,397.426270 302.855316,381.092834 
	C300.078156,374.949707 294.898346,369.666565 290.041290,364.755432 
	C285.459381,360.122498 281.246185,360.111908 276.311462,363.274078 
	C268.105591,343.500153 261.678009,323.129486 260.916077,301.317627 
	C260.088013,277.613068 260.684753,254.019455 266.162292,230.830399 
	C270.818726,211.117447 278.246613,192.746414 293.532196,178.517731 
	C302.814514,169.877228 313.779907,164.663025 326.098450,162.079254 
	C327.870483,161.707581 329.630341,161.278076 331.119873,160.938293 
	C331.848175,153.617386 331.898010,146.556442 333.337830,139.791306 
	C339.247437,112.024780 356.213898,92.598083 380.624847,79.243790 
	C402.757111,67.136047 426.866821,61.628109 451.717896,59.008064 
	C465.607788,57.543655 479.535950,55.654781 493.455841,58.990440 
	C502.674744,61.199596 511.843018,63.733204 521.166199,65.367241 
	C534.638367,67.728470 548.213013,68.696091 561.884705,66.368706 
	C579.487000,63.372211 592.544739,54.851223 598.682617,36.491325 
	C605.879578,43.107647 609.586975,50.718311 609.844116,59.879574 
	C610.102417,69.081360 605.125427,76.228172 599.396973,83.169891 
	C607.618347,87.855927 615.546814,92.029724 623.128967,96.758820 
	C650.370117,113.749405 674.392883,134.341171 693.242126,160.568893 
	C703.216431,174.447739 711.067932,189.428421 716.438660,205.692474 
	C724.241211,229.320618 747.996765,240.233948 770.782166,230.731461 
	C771.367188,230.487488 771.998962,230.355591 773.479858,229.908417 
	C771.025696,242.413971 766.120483,252.774841 756.542175,260.572266 
	C746.746643,268.546509 735.285583,269.040894 722.226196,267.081024 
	C723.934692,273.869720 725.279297,279.942535 727.002197,285.906097 
	C730.624146,298.442810 735.386597,310.494141 743.170898,321.129700 
	C750.538635,331.196106 759.772400,337.821350 772.981873,336.599060 
	C772.385376,344.565979 766.266235,349.779297 757.406738,349.824402 
	C747.108765,349.876801 737.957825,345.806030 729.007568,341.244446 
	C726.494568,339.963684 724.043030,338.562378 721.037781,336.931183 
	C717.013062,345.491974 713.070068,353.878876 709.060547,362.615021 
z"/>
<path fill="#7C7C7C" opacity="1.000000" stroke="none" 
	d="
M286.832947,945.702942 
	C283.673004,945.780212 280.513123,945.924438 277.353210,945.924927 
	C196.747467,945.937622 116.141716,945.935547 35.535965,945.935425 
	C28.919367,945.935425 28.923979,945.933289 28.925905,939.097229 
	C28.931252,920.111572 28.804928,901.124207 29.071821,882.142212 
	C29.112129,879.275513 30.315372,875.910522 32.097168,873.659912 
	C59.871681,838.578430 95.939865,816.439514 139.154907,805.538879 
	C188.499512,793.092102 237.824738,780.568420 287.498474,768.428101 
	C283.425262,778.438904 278.677277,787.963745 274.678833,797.793457 
	C268.989777,811.779297 263.847412,825.987671 258.480743,840.104431 
	C257.141937,843.626038 257.050903,846.710449 260.657013,849.232117 
	C268.939606,855.023987 276.810272,861.445435 285.335297,866.841797 
	C303.517853,878.351257 322.846710,886.754822 345.027405,886.082642 
	C347.092133,886.020020 349.160400,886.074219 351.350128,886.074219 
	C351.174347,887.091919 351.233276,887.518616 351.054169,887.678528 
	C335.825256,901.269836 320.538910,914.797119 305.350586,928.433533 
	C299.071320,934.071106 292.999237,939.939514 286.832947,945.702942 
z"/>
<path fill="#7C7C7C" opacity="1.000000" stroke="none" 
	d="
M706.820984,767.431885 
	C727.817871,772.658569 748.841370,777.781067 769.805542,783.135803 
	C803.187744,791.662720 836.721497,799.676758 869.834717,809.153137 
	C901.357544,818.174500 928.183289,835.631104 950.858582,859.332825 
	C951.999146,860.524963 952.974670,862.466736 952.981140,864.063660 
	C953.089783,890.725708 953.032227,917.388428 952.999695,944.050964 
	C952.999329,944.372864 952.842163,944.694702 952.615417,945.563416 
	C951.386719,945.675598 949.968567,945.918091 948.550415,945.918457 
	C869.394043,945.939453 790.237610,945.940613 711.081238,945.937683 
	C710.416443,945.937622 709.751709,945.853638 708.527100,945.439087 
	C701.276855,938.872437 694.681824,932.568542 687.873291,926.504272 
	C678.324280,917.999451 668.548340,909.749268 659.003418,901.239990 
	C653.753601,896.559814 648.778015,891.572144 643.628174,886.675049 
	C651.812195,885.888428 659.681702,885.847900 667.231262,884.273315 
	C690.685730,879.381470 710.549500,867.373779 729.464355,852.995911 
	C737.038025,847.238892 737.919678,841.774536 734.824646,834.047424 
	C733.776794,831.431091 733.079102,828.670654 731.974121,826.081665 
	C723.624390,806.516968 715.213074,786.978516 706.820984,767.431885 
z"/>
<path fill="#F3F3EC" opacity="1.000000" stroke="none" 
	d="
M367.083710,691.180176 
	C369.520721,687.887878 371.957672,684.595520 375.088379,681.148621 
	C376.849823,680.999634 377.917603,681.005127 378.987732,681.342285 
	C378.993378,682.115906 378.996674,682.557922 379.052795,683.353760 
	C381.060242,687.512146 382.821594,691.433289 385.024506,695.088257 
	C387.180237,698.665039 389.717224,702.023804 392.276520,705.331482 
	C392.617249,705.771790 394.089417,705.452759 395.009125,705.306396 
	C397.411072,704.923950 399.796753,704.058594 402.189667,704.055969 
	C465.406921,703.985474 528.624329,703.974915 591.841431,704.088562 
	C594.462891,704.093262 597.051086,705.590393 599.714905,706.013367 
	C601.087524,706.231262 603.120850,706.135132 603.955139,705.290894 
	C611.119141,698.041809 612.713257,688.358154 615.043457,678.677979 
	C615.389221,677.544678 615.698425,676.733948 616.007690,675.923218 
	C619.215149,680.703247 622.422607,685.483337 625.866089,690.949890 
	C631.842773,706.123657 633.137329,721.491272 632.653870,736.664612 
	C631.926147,759.502563 629.589966,782.298340 627.580505,805.080505 
	C627.019104,811.444946 625.201782,817.698547 623.714966,824.235657 
	C616.309631,837.978455 609.149963,851.488525 601.723694,865.218323 
	C598.050720,871.573730 594.644348,877.709412 590.755798,884.713501 
	C587.152893,878.176636 584.072754,872.588318 580.936768,866.644165 
	C576.901672,858.186218 572.922546,850.084167 568.794312,841.671265 
	C564.190369,832.379028 559.777954,823.375977 555.234009,814.439819 
	C554.565918,813.125916 553.273376,812.129578 552.235962,810.594116 
	C551.997925,809.233582 551.984253,808.171326 551.560242,807.311401 
	C546.775696,797.607788 542.029602,787.881348 536.956116,778.329468 
	C536.388916,777.261658 533.700073,776.501709 532.278076,776.828918 
	C508.130646,782.383911 483.962189,784.415222 459.546509,778.419983 
	C458.356171,778.127686 455.952271,779.683105 455.249146,780.989441 
	C449.491333,791.687134 443.954803,802.505615 438.483490,813.354309 
	C437.621552,815.063293 437.425934,817.108459 436.581390,819.041992 
	C435.132935,820.682556 433.865723,822.192688 432.944855,823.890625 
	C428.601318,831.899963 424.352631,839.960693 419.913971,848.321655 
	C415.827026,856.758545 411.896179,864.876953 407.708069,873.216919 
	C405.472748,876.930359 403.494629,880.422241 401.025238,884.781372 
	C397.644867,878.540466 394.794189,873.277527 391.929443,867.649170 
	C388.225494,859.798462 384.620056,852.269897 380.820740,844.840515 
	C377.395813,838.143311 373.758606,831.554688 370.127960,824.518127 
	C369.692291,822.162598 369.213440,820.220154 369.015076,818.249512 
	C366.874451,796.984192 364.509460,775.736694 362.746246,754.439575 
	C361.040771,733.839233 361.808411,713.357483 368.159180,693.410339 
	C368.341064,692.839050 367.465942,691.931152 367.083710,691.180176 
z"/>
<path fill="#A1AAA9" opacity="1.000000" stroke="none" 
	d="
M623.960632,824.002991 
	C625.201782,817.698547 627.019104,811.444946 627.580505,805.080505 
	C629.589966,782.298340 631.926147,759.502563 632.653870,736.664612 
	C633.137329,721.491272 631.842773,706.123657 626.022034,691.256592 
	C629.012451,692.757690 632.235168,694.431030 635.129395,696.552429 
	C658.729797,713.850769 681.081482,732.501343 698.692261,756.185608 
	C701.341003,759.747925 703.829041,763.429871 706.606201,767.244141 
	C715.213074,786.978516 723.624390,806.516968 731.974121,826.081665 
	C733.079102,828.670654 733.776794,831.431091 734.824646,834.047424 
	C737.919678,841.774536 737.038025,847.238892 729.464355,852.995911 
	C710.549500,867.373779 690.685730,879.381470 667.231262,884.273315 
	C659.681702,885.847900 651.812195,885.888428 643.628174,886.675049 
	C648.778015,891.572144 653.753601,896.559814 659.003418,901.239990 
	C668.548340,909.749268 678.324280,917.999451 687.873291,926.504272 
	C694.681824,932.568542 701.276855,938.872437 708.073975,945.376343 
	C702.694885,945.788086 697.209106,945.977478 691.723267,945.983215 
	C663.587219,946.012512 635.451233,946.004150 607.315186,945.972717 
	C605.340210,945.970520 603.365417,945.676392 601.133301,944.831177 
	C601.842896,939.768616 602.809692,935.392822 603.897583,930.633789 
	C606.368164,919.173523 608.717712,908.096558 611.311768,896.728149 
	C613.445435,885.960571 615.334717,875.484314 617.450684,864.729492 
	C619.442688,854.774414 621.304504,845.114014 622.924500,835.413269 
	C623.551758,831.656860 623.631470,827.809143 623.960632,824.002991 
z"/>
<path fill="#A1AAA9" opacity="1.000000" stroke="none" 
	d="
M367.053467,691.148376 
	C367.465942,691.931152 368.341064,692.839050 368.159180,693.410339 
	C361.808411,713.357483 361.040771,733.839233 362.746246,754.439575 
	C364.509460,775.736694 366.874451,796.984192 369.015076,818.249512 
	C369.213440,820.220154 369.692291,822.162598 370.105469,824.935059 
	C370.799011,829.826843 371.329559,833.919678 372.075989,837.972778 
	C374.045135,848.665283 376.107941,859.340637 378.131348,870.420776 
	C380.381165,881.223206 382.633057,891.627686 384.897827,902.447266 
	C385.956879,907.577148 387.003021,912.291809 388.039795,917.411133 
	C390.078644,927.218506 392.126801,936.621277 394.174988,946.024048 
	C358.711090,945.980530 323.247162,945.937073 287.308105,945.798279 
	C292.999237,939.939514 299.071320,934.071106 305.350586,928.433533 
	C320.538910,914.797119 335.825256,901.269836 351.054169,887.678528 
	C351.233276,887.518616 351.174347,887.091919 351.350128,886.074219 
	C349.160400,886.074219 347.092133,886.020020 345.027405,886.082642 
	C322.846710,886.754822 303.517853,878.351257 285.335297,866.841797 
	C276.810272,861.445435 268.939606,855.023987 260.657013,849.232117 
	C257.050903,846.710449 257.141937,843.626038 258.480743,840.104431 
	C263.847412,825.987671 268.989777,811.779297 274.678833,797.793457 
	C278.677277,787.963745 283.425262,778.438904 287.893433,768.430786 
	C292.256104,762.217834 296.402649,756.225220 300.901581,750.510071 
	C314.680389,733.005981 331.470245,718.645691 348.959045,705.050537 
	C354.065796,701.080872 359.317017,697.297058 365.022278,693.087402 
	C366.049225,692.177246 366.555847,691.607666 367.062469,691.038086 
	C367.062469,691.038086 367.023224,691.116577 367.053467,691.148376 
z"/>
<path fill="#7C7C7C" opacity="1.000000" stroke="none" 
	d="
M436.922241,818.998169 
	C437.425934,817.108459 437.621552,815.063293 438.483490,813.354309 
	C443.954803,802.505615 449.491333,791.687134 455.249146,780.989441 
	C455.952271,779.683105 458.356171,778.127686 459.546509,778.419983 
	C483.962189,784.415222 508.130646,782.383911 532.278076,776.828918 
	C533.700073,776.501709 536.388916,777.261658 536.956116,778.329468 
	C542.029602,787.881348 546.775696,797.607788 551.560242,807.311401 
	C551.984253,808.171326 551.997925,809.233582 551.919250,810.791565 
	C547.682373,821.535339 543.728455,831.689392 539.526001,842.083008 
	C536.860596,846.851746 534.706604,851.550293 531.937317,855.852783 
	C529.980225,858.893372 529.679871,861.590454 531.303223,865.134033 
	C532.797729,876.072205 534.338135,886.527222 535.872498,897.418823 
	C537.018005,905.544495 538.169556,913.233704 539.345093,921.384155 
	C540.470947,929.871033 541.572754,937.896545 542.674561,945.922058 
	C512.994629,945.923157 483.314728,945.929993 453.634796,945.908386 
	C452.159912,945.907288 450.685211,945.658264 448.933716,944.789429 
	C448.951569,940.667480 449.246155,937.280823 449.669373,933.555176 
	C450.743927,924.826660 451.689758,916.437073 452.800293,907.709351 
	C454.267761,895.922180 455.570526,884.473267 456.988617,872.622375 
	C460.262726,861.383606 459.045013,851.626099 449.981201,843.457153 
	C445.556122,835.090881 441.239166,827.044556 436.922241,818.998169 
z"/>
<path fill="#E4E5DD" opacity="1.000000" stroke="none" 
	d="
M616.007812,675.515015 
	C615.698425,676.733948 615.389221,677.544678 614.748901,678.814331 
	C613.185120,680.022156 611.952454,680.770935 611.334290,681.146484 
	C608.903748,679.937439 607.079346,678.342957 605.137939,678.184937 
	C597.379944,677.553345 589.588135,677.203796 581.803711,677.084717 
	C577.687561,677.021667 573.556763,677.956909 569.439697,677.902832 
	C558.328613,677.756775 547.222351,677.275574 536.111511,677.061340 
	C534.754272,677.035217 533.353516,677.753052 532.021667,678.255432 
	C529.738708,679.116455 527.498840,680.868103 525.233032,680.880981 
	C494.294891,681.057739 463.355377,680.997803 432.416229,681.005981 
	C430.755249,681.006409 429.094543,681.107239 427.433289,681.138916 
	C413.828430,681.398438 400.222290,681.604736 386.619690,681.951294 
	C384.072540,682.016113 381.539520,682.636169 379.000000,683.000000 
	C378.996674,682.557922 378.993378,682.115906 378.982056,680.994141 
	C378.312775,679.538147 377.651489,678.761719 376.990204,677.985352 
	C376.994629,673.403381 376.829102,668.811157 377.103394,664.245361 
	C377.189514,662.812073 378.458130,661.449768 380.060913,660.027283 
	C402.347076,659.327515 423.762085,658.765198 445.166290,657.926208 
	C453.101288,657.615173 461.022491,656.757996 468.918854,655.872253 
	C470.028656,655.747742 470.960114,654.033203 471.974121,653.054565 
	C477.362183,654.043884 482.750244,655.033142 488.601990,656.430420 
	C491.622192,659.854858 495.078644,659.915466 498.003937,656.995117 
	C498.440674,656.988953 498.877380,656.982788 499.932861,657.237244 
	C504.313141,657.994934 508.382172,659.660095 511.777740,658.766418 
	C521.344849,656.248291 530.838623,658.268127 540.330627,658.108521 
	C561.140991,657.758484 581.961365,657.995422 602.777649,658.001831 
	C613.980347,658.005310 615.974243,659.973816 616.002441,671.000000 
	C616.004272,672.368958 616.006042,673.737854 616.007812,675.515015 
z"/>
<path fill="#DDDDD6" opacity="1.000000" stroke="none" 
	d="
M471.572388,653.039062 
	C470.960114,654.033203 470.028656,655.747742 468.918854,655.872253 
	C461.022491,656.757996 453.101288,657.615173 445.166290,657.926208 
	C423.762085,658.765198 402.347076,659.327515 380.467560,659.998535 
	C379.272919,657.734436 378.918182,655.254700 377.748444,653.250671 
	C374.778259,648.161987 375.999786,643.032776 377.402527,637.424866 
	C382.584381,637.007751 387.329529,637.005432 392.074677,637.005188 
	C402.972443,637.004578 413.872498,636.886902 424.766296,637.094543 
	C427.237244,637.141602 429.661743,638.461121 432.159546,638.897339 
	C433.032043,639.049805 434.060883,638.306824 435.018341,637.972778 
	C442.202972,641.402893 449.293823,645.051941 456.605957,648.184326 
	C461.291992,650.191650 466.304504,651.436768 471.572388,653.039062 
z"/>
<path fill="#DDDDD6" opacity="1.000000" stroke="none" 
	d="
M616.379761,670.882507 
	C615.974243,659.973816 613.980347,658.005310 602.777649,658.001831 
	C581.961365,657.995422 561.140991,657.758484 540.330627,658.108521 
	C530.838623,658.268127 521.344849,656.248291 511.777740,658.766418 
	C508.382172,659.660095 504.313141,657.994934 500.260437,657.236511 
	C503.658813,656.335815 507.448242,656.036011 511.016968,654.986023 
	C518.250549,652.857971 525.474487,650.606079 532.496460,647.875610 
	C539.211243,645.264526 545.664734,641.981628 552.685791,639.314819 
	C554.227600,639.779419 555.355286,640.178162 556.398804,640.020447 
	C559.834167,639.501099 563.240234,638.229553 566.655334,638.237000 
	C578.239563,638.262085 589.823425,638.926331 601.406128,638.892883 
	C605.937561,638.879822 610.465576,637.665039 614.995117,636.997559 
	C613.914551,644.491333 612.594421,651.717651 616.942932,659.093201 
	C618.629150,661.953125 616.919617,666.815063 616.379761,670.882507 
z"/>
<path fill="#EDEDE5" opacity="1.000000" stroke="none" 
	d="
M543.169678,945.940796 
	C541.572754,937.896545 540.470947,929.871033 539.718262,921.560181 
	C541.412048,923.955933 542.756775,926.636902 543.901611,928.919434 
	C543.357422,925.157715 546.260315,924.953125 549.584290,924.973816 
	C560.846130,925.043884 572.111572,925.157410 583.369751,924.943298 
	C590.559265,924.806519 597.897888,923.571777 602.837646,930.759949 
	C602.977966,930.964233 603.455933,930.936584 603.776489,931.017090 
	C602.809692,935.392822 601.842896,939.768616 600.803101,944.545166 
	C598.624268,945.297363 596.519653,945.944519 594.412354,945.953247 
	C577.496765,946.023254 560.580688,945.973022 543.169678,945.940796 
z"/>
<path fill="#D3D3CB" opacity="1.000000" stroke="none" 
	d="
M614.998779,636.570923 
	C610.465576,637.665039 605.937561,638.879822 601.406128,638.892883 
	C589.823425,638.926331 578.239563,638.262085 566.655334,638.237000 
	C563.240234,638.229553 559.834167,639.501099 556.398804,640.020447 
	C555.355286,640.178162 554.227600,639.779419 553.056885,639.300415 
	C559.722290,634.617554 566.481567,630.288696 573.210571,625.913391 
	C575.980469,624.112366 578.685303,622.211365 581.841553,620.585938 
	C583.602600,621.210510 584.968506,622.018066 586.276855,621.933655 
	C596.160400,621.296143 606.140259,623.605835 615.951477,620.976318 
	C615.635132,626.032288 615.318787,631.088318 614.998779,636.570923 
z"/>
<path fill="#EDEDE5" opacity="1.000000" stroke="none" 
	d="
M449.540710,933.894165 
	C449.246155,937.280823 448.951569,940.667480 448.579529,944.509521 
	C446.239227,945.310730 443.978027,945.943665 441.713409,945.956238 
	C426.168396,946.041992 410.622650,945.997864 394.626068,946.009766 
	C392.126801,936.621277 390.078644,927.218506 388.378296,917.420898 
	C390.764343,920.987061 395.148102,924.324036 396.241852,927.545776 
	C398.288940,933.575684 401.955414,933.831848 406.314728,933.925659 
	C416.636444,934.147888 426.966125,934.007629 437.292603,933.993652 
	C441.375336,933.988159 445.458008,933.928955 449.540710,933.894165 
z"/>
<path fill="#D3D3CB" opacity="1.000000" stroke="none" 
	d="
M434.682190,637.894104 
	C434.060883,638.306824 433.032043,639.049805 432.159546,638.897339 
	C429.661743,638.461121 427.237244,637.141602 424.766296,637.094543 
	C413.872498,636.886902 402.972443,637.004578 392.074677,637.005188 
	C387.329529,637.005432 382.584381,637.007751 377.419617,637.005798 
	C376.998718,635.612610 376.997437,634.222717 376.996399,631.958130 
	C376.997803,627.722229 376.998901,624.361145 377.427612,620.998047 
	C387.023163,620.411865 396.239075,617.421265 405.329102,621.573608 
	C405.750610,621.766052 406.534485,621.165283 407.149597,620.933960 
	C410.725220,623.248657 414.262268,625.625854 417.885559,627.863342 
	C423.340698,631.232056 428.856201,634.502930 434.682190,637.894104 
z"/>
<path fill="#CACBC5" opacity="1.000000" stroke="none" 
	d="
M615.961426,620.510132 
	C606.140259,623.605835 596.160400,621.296143 586.276855,621.933655 
	C584.968506,622.018066 583.602600,621.210510 582.145142,620.442871 
	C591.608459,611.278137 601.181580,602.477417 610.780334,593.704712 
	C612.221985,592.387024 613.783875,591.200928 615.632690,589.873901 
	C615.973938,599.877136 615.972595,609.960571 615.961426,620.510132 
z"/>
<path fill="#CACBC5" opacity="1.000000" stroke="none" 
	d="
M407.034058,620.619812 
	C406.534485,621.165283 405.750610,621.766052 405.329102,621.573608 
	C396.239075,617.421265 387.023163,620.411865 377.426422,620.537354 
	C376.978485,616.386536 376.959320,612.694458 376.940186,609.002319 
	C376.932037,603.976807 376.923889,598.951294 376.942078,593.151367 
	C376.994781,592.170715 377.021149,591.964355 377.047516,591.757935 
	C380.879608,595.561584 384.750275,599.327393 388.532104,603.180359 
	C391.764984,606.474182 394.895874,609.868164 397.865692,613.624084 
	C397.398376,614.588196 397.137238,615.145935 396.876099,615.703735 
	C398.303894,615.755432 399.731720,615.807129 401.159515,615.858887 
	C403.079193,617.341125 404.998871,618.823364 407.034058,620.619812 
z"/>
<path fill="#DDDDD6" opacity="1.000000" stroke="none" 
	d="
M376.561829,609.077148 
	C376.959320,612.694458 376.978485,616.386536 376.998840,620.539307 
	C376.998901,624.361145 376.997803,627.722229 376.994080,631.541260 
	C375.994324,627.552979 374.475769,623.141235 374.179260,618.648804 
	C373.974152,615.540833 375.455658,612.321594 376.561829,609.077148 
z"/>
<path fill="#EDEDE5" opacity="1.000000" stroke="none" 
	d="
M376.713318,678.142578 
	C377.651489,678.761719 378.312775,679.538147 378.979675,680.662598 
	C377.917603,681.005127 376.849823,680.999634 375.380676,680.988770 
	C375.464996,680.088867 375.950714,679.194275 376.713318,678.142578 
z"/>
<path fill="#DDDDD6" opacity="1.000000" stroke="none" 
	d="
M377.048859,591.567627 
	C377.021149,591.964355 376.994781,592.170715 376.917084,592.684753 
	C376.425934,592.652344 375.986115,592.312256 375.546295,591.972107 
	C375.855865,591.679016 376.165405,591.385864 376.753906,591.044800 
	C377.032806,590.996887 377.050201,591.377258 377.048859,591.567627 
z"/>
<path fill="#F3F3EC" opacity="1.000000" stroke="none" 
	d="
M366.743408,691.073730 
	C366.555847,691.607666 366.049225,692.177246 365.276001,692.866882 
	C365.481049,692.361145 365.952698,691.735291 366.743408,691.073730 
z"/>
<path fill="#DDDDD6" opacity="1.000000" stroke="none" 
	d="
M497.605804,656.933533 
	C495.078644,659.915466 491.622192,659.854858 489.045959,656.446899 
	C491.753418,656.327576 494.480530,656.599792 497.605804,656.933533 
z"/>
<path fill="#D3D3CB" opacity="1.000000" stroke="none" 
	d="
M401.046753,615.559204 
	C399.731720,615.807129 398.303894,615.755432 396.876099,615.703735 
	C397.137238,615.145935 397.398376,614.588196 397.974854,613.953003 
	C399.171478,614.336914 400.052734,614.798218 401.046753,615.559204 
z"/>
<path fill="#EDEDE5" opacity="1.000000" stroke="none" 
	d="
M379.052795,683.353760 
	C381.539520,682.636169 384.072540,682.016113 386.619690,681.951294 
	C400.222290,681.604736 413.828430,681.398438 427.433289,681.138916 
	C429.094543,681.107239 430.755249,681.006409 432.416229,681.005981 
	C463.355377,680.997803 494.294891,681.057739 525.233032,680.880981 
	C527.498840,680.868103 529.738708,679.116455 532.021667,678.255432 
	C533.353516,677.753052 534.754272,677.035217 536.111511,677.061340 
	C547.222351,677.275574 558.328613,677.756775 569.439697,677.902832 
	C573.556763,677.956909 577.687561,677.021667 581.803711,677.084717 
	C589.588135,677.203796 597.379944,677.553345 605.137939,678.184937 
	C607.079346,678.342957 608.903748,679.937439 611.334290,681.146484 
	C611.952454,680.770935 613.185120,680.022156 614.712341,679.136963 
	C612.713257,688.358154 611.119141,698.041809 603.955139,705.290894 
	C603.120850,706.135132 601.087524,706.231262 599.714905,706.013367 
	C597.051086,705.590393 594.462891,704.093262 591.841431,704.088562 
	C528.624329,703.974915 465.406921,703.985474 402.189667,704.055969 
	C399.796753,704.058594 397.411072,704.923950 395.009125,705.306396 
	C394.089417,705.452759 392.617249,705.771790 392.276520,705.331482 
	C389.717224,702.023804 387.180237,698.665039 385.024506,695.088257 
	C382.821594,691.433289 381.060242,687.512146 379.052795,683.353760 
z"/>
<path fill="#DEDED7" opacity="1.000000" stroke="none" 
	d="
M456.873260,873.024353 
	C455.570526,884.473267 454.267761,895.922180 452.468750,907.860352 
	C451.458038,909.499329 450.943604,910.649109 450.383148,911.901794 
	C450.017792,910.025024 449.579559,908.271179 449.352539,906.490417 
	C449.018585,903.870605 447.683044,902.979736 445.022095,902.949585 
	C424.975464,902.722778 404.930450,902.355469 384.884918,902.032104 
	C382.633057,891.627686 380.381165,881.223206 378.476746,870.351196 
	C380.962067,869.437622 383.084320,868.882019 385.242004,868.576111 
	C387.457855,868.261902 389.708252,868.191650 391.943542,868.014587 
	C394.794189,873.277527 397.644867,878.540466 401.025238,884.781372 
	C403.494629,880.422241 405.472748,876.930359 408.099426,873.214355 
	C411.251984,871.966003 413.699341,870.257568 416.270416,870.044922 
	C424.197906,869.388977 432.177521,869.010864 440.126465,869.144531 
	C443.233307,869.196716 446.299652,870.941772 449.408234,871.832825 
	C451.840698,872.530212 453.890747,875.758667 456.873260,873.024353 
z"/>
<path fill="#DDDDD6" opacity="1.000000" stroke="none" 
	d="
M535.878479,896.982300 
	C534.338135,886.527222 532.797729,876.072205 531.702271,865.274292 
	C535.127991,869.559326 538.754089,870.221741 543.443970,867.234985 
	C544.642029,866.472046 546.688416,867.005615 548.345154,867.004028 
	C559.227661,866.993469 570.110168,866.999451 580.992676,867.000000 
	C584.072754,872.588318 587.152893,878.176636 590.755798,884.713501 
	C594.644348,877.709412 598.050720,871.573730 602.069946,865.206970 
	C604.029297,864.615845 606.324036,863.615845 606.578491,863.992920 
	C609.813416,868.786194 613.683228,865.016602 617.223938,865.008057 
	C615.334717,875.484314 613.445435,885.960571 610.892395,896.659546 
	C607.940125,896.588135 605.648499,896.016907 603.363708,896.042969 
	C580.867981,896.299316 558.373413,896.654846 535.878479,896.982300 
z"/>
<path fill="#D3D3CB" opacity="1.000000" stroke="none" 
	d="
M580.936768,866.644165 
	C570.110168,866.999451 559.227661,866.993469 548.345154,867.004028 
	C546.688416,867.005615 544.642029,866.472046 543.443970,867.234985 
	C538.754089,870.221741 535.127991,869.559326 531.748169,864.791138 
	C529.679871,861.590454 529.980225,858.893372 531.937317,855.852783 
	C534.706604,851.550293 536.860596,846.851746 539.807800,842.296265 
	C541.810120,843.324585 544.315247,845.516968 544.597534,845.260803 
	C548.156555,842.029846 552.107178,844.137878 555.878479,843.902161 
	C560.256348,843.628479 564.590332,842.652954 568.943359,841.982056 
	C572.922546,850.084167 576.901672,858.186218 580.936768,866.644165 
z"/>
<path fill="#D3D3CB" opacity="1.000000" stroke="none" 
	d="
M456.988617,872.622375 
	C453.890747,875.758667 451.840698,872.530212 449.408234,871.832825 
	C446.299652,870.941772 443.233307,869.196716 440.126465,869.144531 
	C432.177521,869.010864 424.197906,869.388977 416.270416,870.044922 
	C413.699341,870.257568 411.251984,871.966003 408.356689,872.992798 
	C411.896179,864.876953 415.827026,856.758545 420.255859,848.484619 
	C428.107605,848.735352 435.457428,849.308472 442.816589,849.477783 
	C446.505951,849.562805 448.936432,847.303894 450.089294,843.776978 
	C459.045013,851.626099 460.262726,861.383606 456.988617,872.622375 
z"/>
<path fill="#CACBC5" opacity="1.000000" stroke="none" 
	d="
M449.981201,843.457153 
	C448.936432,847.303894 446.505951,849.562805 442.816589,849.477783 
	C435.457428,849.308472 428.107605,848.735352 420.411987,848.166077 
	C424.352631,839.960693 428.601318,831.899963 432.944855,823.890625 
	C433.865723,822.192688 435.132935,820.682556 436.581421,819.041992 
	C441.239166,827.044556 445.556122,835.090881 449.981201,843.457153 
z"/>
<path fill="#CACBC5" opacity="1.000000" stroke="none" 
	d="
M568.794312,841.671265 
	C564.590332,842.652954 560.256348,843.628479 555.878479,843.902161 
	C552.107178,844.137878 548.156555,842.029846 544.597534,845.260803 
	C544.315247,845.516968 541.810120,843.324585 540.056274,842.056763 
	C543.728455,831.689392 547.682373,821.535339 551.953003,811.183716 
	C553.273376,812.129578 554.565918,813.125916 555.234009,814.439819 
	C559.777954,823.375977 564.190369,832.379028 568.794312,841.671265 
z"/>
<path fill="#D3D3CB" opacity="1.000000" stroke="none" 
	d="
M617.450684,864.729492 
	C613.683228,865.016602 609.813416,868.786194 606.578491,863.992920 
	C606.324036,863.615845 604.029297,864.615845 602.336548,864.987244 
	C609.149963,851.488525 616.309631,837.978455 623.714966,824.235657 
	C623.631470,827.809143 623.551758,831.656860 622.924500,835.413269 
	C621.304504,845.114014 619.442688,854.774414 617.450684,864.729492 
z"/>
<path fill="#D3D3CB" opacity="1.000000" stroke="none" 
	d="
M391.929443,867.649170 
	C389.708252,868.191650 387.457855,868.261902 385.242004,868.576111 
	C383.084320,868.882019 380.962067,869.437622 378.478851,869.953125 
	C376.107941,859.340637 374.045135,848.665283 372.075989,837.972778 
	C371.329559,833.919678 370.799011,829.826843 370.192535,825.335083 
	C373.758606,831.554688 377.395813,838.143311 380.820740,844.840515 
	C384.620056,852.269897 388.225494,859.798462 391.929443,867.649170 
z"/>
<path fill="#E6E6DE" opacity="1.000000" stroke="none" 
	d="
M535.872498,897.418823 
	C558.373413,896.654846 580.867981,896.299316 603.363708,896.042969 
	C605.648499,896.016907 607.940125,896.588135 610.647949,896.950867 
	C608.717712,908.096558 606.368164,919.173523 603.897522,930.633789 
	C603.455933,930.936584 602.977966,930.964233 602.837646,930.759949 
	C597.897888,923.571777 590.559265,924.806519 583.369751,924.943298 
	C572.111572,925.157410 560.846130,925.043884 549.584290,924.973816 
	C546.260315,924.953125 543.357422,925.157715 543.901611,928.919434 
	C542.756775,926.636902 541.412048,923.955933 539.694214,921.098877 
	C538.169556,913.233704 537.018005,905.544495 535.872498,897.418823 
z"/>
<path fill="#E6E6DE" opacity="1.000000" stroke="none" 
	d="
M384.897827,902.447266 
	C404.930450,902.355469 424.975464,902.722778 445.022095,902.949585 
	C447.683044,902.979736 449.018585,903.870605 449.352539,906.490417 
	C449.579559,908.271179 450.017792,910.025024 450.383148,911.901794 
	C450.943604,910.649109 451.458038,909.499329 452.304016,908.198547 
	C451.689758,916.437073 450.743927,924.826660 449.669373,933.555176 
	C445.458008,933.928955 441.375336,933.988159 437.292603,933.993652 
	C426.966125,934.007629 416.636444,934.147888 406.314728,933.925659 
	C401.955414,933.831848 398.288940,933.575684 396.241852,927.545776 
	C395.148102,924.324036 390.764343,920.987061 388.387665,917.016235 
	C387.003021,912.291809 385.956879,907.577148 384.897827,902.447266 
z"/>
</svg>