<svg version="1.1" id="Layer_1" xmlns="http://www.w3.org/2000/svg" xmlns:xlink="http://www.w3.org/1999/xlink" x="0px" y="0px"
	 width="100%" viewBox="0 0 1000 997" enable-background="new 0 0 1000 997" xml:space="preserve">
<path fill="#DADADA" opacity="1.000000" stroke="none" 
	d="
M68.000000,998.000000 
	C45.669674,998.000000 23.339344,998.000000 1.006763,998.000000 
	C1.004509,665.714417 1.004509,333.428802 1.004509,1.071600 
	C334.240723,1.071600 667.481506,1.071600 1000.861084,1.071600 
	C1000.861084,333.333282 1000.861084,665.666626 1000.861084,998.000000 
	C977.914490,998.000000 954.916992,998.000000 931.362061,997.609985 
	C927.537231,976.235291 924.414673,955.226562 920.949951,934.274475 
	C918.732727,920.866577 916.549377,907.411560 913.353149,894.219482 
	C910.500488,882.444946 902.822144,876.104797 889.990356,874.759949 
	C875.694946,873.261841 861.611389,869.742371 847.568604,866.665283 
	C848.101562,863.265808 848.771545,860.311707 848.858643,857.340393 
	C849.537231,834.180054 848.592346,811.110229 843.931091,788.342712 
	C838.838745,763.469421 829.750122,740.243591 815.224365,719.230713 
	C804.084351,703.115601 790.940247,688.889343 776.420166,675.794128 
	C759.248291,660.307373 742.110229,644.767212 725.425659,628.762085 
	C715.408813,619.153137 707.665039,607.615417 701.618408,595.080688 
	C694.530823,580.388000 690.068237,564.885864 689.911377,548.524841 
	C689.744446,531.103271 690.180847,513.667480 690.752441,496.250977 
	C691.018433,488.144226 692.226196,480.068390 693.006287,471.996826 
	C693.005493,472.015137 692.967834,472.015045 693.252380,471.878967 
	C693.703796,471.355469 693.870605,470.968048 694.022705,470.229309 
	C697.093994,465.010437 698.583862,459.743347 698.041626,453.584473 
	C700.148010,447.235107 702.097229,441.216583 704.284180,435.285767 
	C712.489868,413.032104 718.961304,390.475433 719.155884,366.431091 
	C719.344604,343.104980 718.070679,319.927917 715.152405,296.777557 
	C712.543457,276.080933 708.745056,255.746933 700.937866,236.311768 
	C688.403381,205.109039 669.400818,178.695145 643.215942,157.423141 
	C621.136780,139.486557 596.422974,126.538185 569.977112,116.315125 
	C531.869507,101.584045 492.852661,98.194366 452.829620,105.329315 
	C424.965179,110.296730 398.322266,118.897049 373.665527,133.134140 
	C346.390808,148.882874 324.221405,169.567627 309.982513,198.091202 
	C296.425232,225.249466 288.188049,254.186844 282.143921,283.721710 
	C276.887360,309.408386 273.013062,335.374817 268.110352,361.138153 
	C264.997589,377.495544 264.800446,393.790863 267.326202,410.156921 
	C271.222931,435.406952 275.400146,460.614288 279.191284,485.879791 
	C280.907654,497.318604 279.388367,508.621979 273.924438,518.813416 
	C267.011932,531.706787 259.184967,544.107483 251.848007,556.776123 
	C232.668228,589.893616 212.752197,622.616760 194.616440,656.297668 
	C176.913254,689.175415 162.111969,723.446045 157.581589,761.102783 
	C155.790588,775.989502 156.916901,790.655762 163.285904,804.566956 
	C171.205536,821.865234 180.559891,838.317810 191.785736,853.702637 
	C192.874741,855.195129 193.245667,857.211609 193.539688,858.992493 
	C163.586182,864.557373 134.093948,870.412781 104.467323,875.482910 
	C96.018196,876.928833 90.845810,881.234314 87.511101,888.364868 
	C85.552635,892.552612 83.828072,897.021667 83.023933,901.546448 
	C80.119705,917.888306 77.576263,934.296021 75.038017,950.700745 
	C72.600693,966.453003 70.338921,982.232483 68.000000,998.000000 
z"/>
<path fill="#F2F2F2" opacity="1.000000" stroke="none" 
	d="
M692.000000,998.000000 
	C690.285645,998.000000 688.571228,998.000000 686.604248,997.708191 
	C685.402893,996.256592 684.454285,995.096741 683.322388,993.676270 
	C682.767151,993.248657 682.395142,993.081726 682.019653,992.950500 
	C682.016235,992.986206 682.087158,992.976196 682.043213,992.653015 
	C681.683655,992.036072 681.368042,991.742371 680.991455,991.168335 
	C680.040894,990.233948 679.151245,989.579895 678.145020,988.598389 
	C676.772644,986.745178 675.585388,985.156555 674.250854,983.703064 
	C656.296448,964.149597 638.403992,944.537964 620.266479,925.155640 
	C617.419128,922.112732 613.437683,920.131104 609.766296,917.390381 
	C601.722656,912.985962 593.386597,911.782654 585.047729,914.589111 
	C561.608276,922.477478 538.204712,930.498352 515.011108,939.073181 
	C509.235687,941.208496 504.307556,945.635498 498.994385,949.004578 
	C498.998779,949.000000 498.995331,949.005066 498.603943,948.998352 
	C496.466248,948.675964 494.719879,948.360352 492.628479,947.987183 
	C486.227905,944.587646 480.482971,940.390503 474.060791,938.058594 
	C451.658386,929.924255 429.033417,922.400879 406.467407,914.720459 
	C399.140656,912.226807 391.919952,912.653137 384.592682,916.133850 
	C379.751923,919.106079 374.646118,921.502014 370.921112,925.264771 
	C362.043549,934.232422 353.861053,943.885071 345.318909,953.188538 
	C333.740784,965.798462 322.088898,978.340637 310.201447,991.078918 
	C308.289459,993.497314 306.644745,995.748657 305.000000,998.000000 
	C303.285614,998.000000 301.571259,998.000000 299.466339,997.617432 
	C298.970825,996.476318 298.865845,995.717712 298.786438,994.496460 
	C300.726501,980.116821 301.596252,965.954041 304.800873,952.340820 
	C309.580109,932.038513 316.005798,912.123901 321.893219,891.695312 
	C322.910645,888.837646 323.711792,886.309082 324.629333,883.823547 
	C333.236847,860.506104 341.864349,837.196045 350.649658,813.617310 
	C353.381927,807.594299 355.471802,801.560120 358.616425,796.137634 
	C365.753174,783.831177 373.459778,771.856567 380.836609,759.687500 
	C386.168365,750.892029 391.075928,741.824768 396.740784,733.254150 
	C398.558380,730.504211 402.190460,728.953613 404.844788,727.256592 
	C404.458069,732.444946 404.219025,737.231018 403.841064,742.340820 
	C403.699310,744.267456 403.775482,745.875061 403.681122,747.472473 
	C402.804535,762.315979 401.898621,777.157715 400.715942,792.298767 
	C399.013458,803.303101 398.456390,814.021729 401.396698,824.552490 
	C403.841095,833.307129 406.592010,841.981018 409.409821,850.624573 
	C410.854645,855.056763 414.342865,858.281555 418.762299,858.415344 
	C429.537262,858.741516 440.341217,858.279846 451.128540,857.965210 
	C457.582428,857.777039 464.479340,858.579895 470.354919,856.553406 
	C476.905457,854.294006 482.801117,856.355713 488.964081,856.217529 
	C502.517395,855.913513 516.075012,855.796143 529.631226,855.626892 
	C543.081238,855.458923 556.550720,854.833801 569.974365,855.360657 
	C577.461060,855.654480 579.940796,854.883484 582.926697,848.013611 
	C587.729553,836.962952 591.108826,825.455933 591.672485,813.524353 
	C592.119385,804.063660 590.631287,794.511536 590.000854,784.550232 
	C589.325134,769.128906 588.663635,754.156738 587.939575,739.187622 
	C587.903748,738.445740 587.324036,737.730225 586.970215,736.683655 
	C586.622803,735.579224 586.302673,734.793640 585.994751,733.637939 
	C586.329041,731.840698 586.651184,730.413391 586.975037,728.655151 
	C586.984497,727.882751 586.992249,727.441345 587.358398,726.998657 
	C589.604675,728.527100 592.061401,729.699402 593.285400,731.646606 
	C599.732544,741.903137 605.987061,752.286255 612.082031,762.757202 
	C619.324158,775.199097 629.611633,785.782471 634.387878,799.745972 
	C635.830750,803.964417 638.058350,807.914490 639.968262,812.359253 
	C641.313232,815.965759 642.736206,819.158081 643.900940,822.441895 
	C654.728210,852.967224 665.510986,883.508301 676.337341,914.415161 
	C677.791199,919.686462 679.297729,924.564941 680.623047,929.492126 
	C686.400757,950.972229 692.786804,972.347778 692.272827,995.309021 
	C692.101807,996.452454 692.050903,997.226257 692.000000,998.000000 
z"/>
<path fill="#939393" opacity="1.000000" stroke="none" 
	d="
M676.306641,914.044800 
	C665.510986,883.508301 654.728210,852.967224 643.900940,822.441895 
	C642.736206,819.158081 641.313232,815.965759 640.341003,812.405396 
	C641.847351,812.677856 642.971680,813.423645 644.206238,813.850952 
	C656.101440,817.968140 667.922119,822.333435 679.943909,826.045349 
	C702.054382,832.872375 724.132812,839.894653 746.511597,845.735779 
	C768.277466,851.416992 790.372681,855.862061 812.383118,860.570312 
	C824.001465,863.055542 835.747314,864.944580 847.435608,867.102783 
	C861.611389,869.742371 875.694946,873.261841 889.990356,874.759949 
	C902.822144,876.104797 910.500488,882.444946 913.353149,894.219482 
	C916.549377,907.411560 918.732727,920.866577 920.949951,934.274475 
	C924.414673,955.226562 927.537231,976.235291 930.902344,997.609985 
	C851.645752,998.000000 772.291565,998.000000 692.468628,998.000000 
	C692.050903,997.226257 692.101807,996.452454 692.615417,995.186523 
	C693.633179,991.027771 694.940552,987.291199 694.607300,983.707214 
	C693.437744,971.131470 692.684204,958.475586 688.165405,946.408875 
	C685.742432,939.938660 684.212585,933.132935 682.308167,926.470398 
	C681.809875,924.727051 681.719360,922.797485 680.908569,921.228943 
	C679.608337,918.713440 677.863525,916.427673 676.306641,914.044800 
z"/>
<path fill="#939393" opacity="1.000000" stroke="none" 
	d="
M298.760864,994.959167 
	C298.865845,995.717712 298.970825,996.476318 299.037903,997.617432 
	C222.312439,998.000000 145.624878,998.000000 68.468658,998.000000 
	C70.338921,982.232483 72.600693,966.453003 75.038017,950.700745 
	C77.576263,934.296021 80.119705,917.888306 83.023933,901.546448 
	C83.828072,897.021667 85.552635,892.552612 87.511101,888.364868 
	C90.845810,881.234314 96.018196,876.928833 104.467323,875.482910 
	C134.093948,870.412781 163.586182,864.557373 193.910522,858.858154 
	C221.171600,852.193848 247.770523,846.111267 274.089783,838.994446 
	C291.642670,834.248108 308.820557,828.099670 326.119446,822.435791 
	C334.298279,819.757935 342.367340,816.744995 350.486115,813.883850 
	C341.864349,837.196045 333.236847,860.506104 324.629333,883.823547 
	C323.711792,886.309082 322.910645,888.837646 321.562134,891.774780 
	C318.356628,897.637939 315.644470,903.072632 313.248932,907.872864 
	C313.018768,911.048218 313.638947,914.195007 312.480103,916.411804 
	C307.962219,925.054321 305.495728,934.318909 303.067352,943.639160 
	C300.588379,953.153381 298.023193,962.645264 295.556427,972.162598 
	C295.365417,972.899536 295.652893,973.760376 295.717712,974.563660 
	C296.143188,979.836121 296.464478,985.120361 297.057617,990.373840 
	C297.235138,991.946350 298.171936,993.433105 298.760864,994.959167 
z"/>
<path fill="#F2F2F2" opacity="1.000000" stroke="none" 
	d="
M489.000000,998.000000 
	C461.979095,998.000000 434.958221,998.000000 407.594299,997.597961 
	C402.468811,980.458984 397.686310,963.721985 392.937317,946.654724 
	C392.991241,945.882385 393.011719,945.440308 393.434082,944.990479 
	C405.055115,942.407349 416.258270,941.370605 427.847076,942.848877 
	C449.509186,945.612183 471.265259,947.639099 493.254517,950.233643 
	C492.017853,966.330017 490.508942,982.164978 489.000000,998.000000 
z"/>
<path fill="#F2F2F2" opacity="1.000000" stroke="none" 
	d="
M591.000000,998.000000 
	C565.979126,998.000000 540.958191,998.000000 515.466064,997.531372 
	C514.993835,986.313171 515.074524,975.562744 514.965393,964.814331 
	C514.882751,956.677429 513.179810,954.695923 505.613586,952.277344 
	C503.295715,951.536377 501.195312,950.114929 498.995331,949.005066 
	C498.995331,949.005066 498.998779,949.000000 499.443237,949.005432 
	C502.354858,948.806763 504.830658,948.675781 507.287628,948.385376 
	C516.627808,947.281738 525.945374,945.957520 535.303040,945.038391 
	C544.508911,944.134155 553.743408,943.354980 562.983521,943.013672 
	C571.700745,942.691711 580.471802,942.591187 589.160278,943.214233 
	C593.973999,943.559509 599.069275,944.743103 602.214294,949.677368 
	C601.608459,952.491455 601.044861,954.914429 600.480042,957.337158 
	C597.320190,970.891479 594.160034,984.445740 591.000000,998.000000 
z"/>
<path fill="#939393" opacity="1.000000" stroke="none" 
	d="
M392.903839,946.984985 
	C397.686310,963.721985 402.468811,980.458984 407.125641,997.597961 
	C373.312439,998.000000 339.624878,998.000000 305.468689,998.000000 
	C306.644745,995.748657 308.289459,993.497314 310.604767,991.076050 
	C312.197083,990.565308 313.199249,990.359070 314.028595,989.863586 
	C327.030853,982.096313 339.846100,973.997986 353.049469,966.591064 
	C363.111938,960.946045 373.647858,956.142090 384.000397,951.019043 
	C386.918915,949.574707 389.933380,948.324341 392.903839,946.984985 
z"/>
<path fill="#939393" opacity="1.000000" stroke="none" 
	d="
M591.468689,998.000000 
	C594.160034,984.445740 597.320190,970.891479 600.480042,957.337158 
	C601.044861,954.914429 601.608459,952.491455 602.393066,949.598694 
	C602.613464,949.128784 602.982117,948.995422 603.342773,949.039673 
	C610.538147,952.453308 617.487915,955.610229 624.183472,959.236450 
	C638.107727,966.777771 651.888306,974.583984 665.747681,982.245728 
	C669.885376,984.533203 674.088440,986.702393 678.261597,988.925842 
	C679.151245,989.579895 680.040894,990.233948 681.069824,991.482788 
	C681.501831,992.377136 681.794495,992.676697 682.087158,992.976196 
	C682.087158,992.976196 682.016235,992.986206 682.190613,993.213379 
	C682.745239,993.606018 683.125427,993.771484 683.505615,993.936951 
	C684.454285,995.096741 685.402893,996.256592 686.175781,997.708191 
	C654.645752,998.000000 623.291565,998.000000 591.468689,998.000000 
z"/>
<path fill="#E5E5E5" opacity="1.000000" stroke="none" 
	d="
M498.603943,948.998352 
	C501.195312,950.114929 503.295715,951.536377 505.613586,952.277344 
	C513.179810,954.695923 514.882751,956.677429 514.965393,964.814331 
	C515.074524,975.562744 514.993835,986.313171 514.997375,997.531372 
	C506.645782,998.000000 498.291534,998.000000 489.468689,998.000000 
	C490.508942,982.164978 492.017853,966.330017 493.257263,949.912476 
	C492.983002,948.901550 492.978271,948.473145 492.973572,948.044739 
	C494.719879,948.360352 496.466248,948.675964 498.603943,948.998352 
z"/>
<path fill="#9F9F9F" opacity="1.000000" stroke="none" 
	d="
M350.649658,813.617310 
	C342.367340,816.744995 334.298279,819.757935 326.119446,822.435791 
	C308.820557,828.099670 291.642670,834.248108 274.089783,838.994446 
	C247.770523,846.111267 221.171600,852.193848 194.320770,858.850586 
	C193.245667,857.211609 192.874741,855.195129 191.785736,853.702637 
	C180.559891,838.317810 171.205536,821.865234 163.285904,804.566956 
	C156.916901,790.655762 155.790588,775.989502 157.581589,761.102783 
	C162.111969,723.446045 176.913254,689.175415 194.616440,656.297668 
	C212.752197,622.616760 232.668228,589.893616 251.848007,556.776123 
	C259.184967,544.107483 267.011932,531.706787 273.924438,518.813416 
	C279.388367,508.621979 280.907654,497.318604 279.191284,485.879791 
	C275.400146,460.614288 271.222931,435.406952 267.326202,410.156921 
	C264.800446,393.790863 264.997589,377.495544 268.110352,361.138153 
	C273.013062,335.374817 276.887360,309.408386 282.143921,283.721710 
	C288.188049,254.186844 296.425232,225.249466 309.982513,198.091202 
	C324.221405,169.567627 346.390808,148.882874 373.665527,133.134140 
	C398.322266,118.897049 424.965179,110.296730 452.829620,105.329315 
	C492.852661,98.194366 531.869507,101.584045 569.977112,116.315125 
	C596.422974,126.538185 621.136780,139.486557 643.215942,157.423141 
	C669.400818,178.695145 688.403381,205.109039 700.937866,236.311768 
	C708.745056,255.746933 712.543457,276.080933 715.152405,296.777557 
	C718.070679,319.927917 719.344604,343.104980 719.155884,366.431091 
	C718.961304,390.475433 712.489868,413.032104 704.284180,435.285767 
	C702.097229,441.216583 700.148010,447.235107 697.795410,453.358032 
	C697.203308,452.275085 696.905518,451.047485 696.463806,449.226440 
	C692.881897,459.898376 689.492188,469.997620 686.102478,480.096863 
	C686.275391,480.193359 686.448364,480.289856 686.621338,480.386353 
	C688.749878,477.583740 690.878479,474.781128 693.007080,471.978516 
	C692.226196,480.068390 691.018433,488.144226 690.752441,496.250977 
	C690.180847,513.667480 689.744446,531.103271 689.911377,548.524841 
	C690.068237,564.885864 694.530823,580.388000 701.618408,595.080688 
	C707.665039,607.615417 715.408813,619.153137 725.425659,628.762085 
	C742.110229,644.767212 759.248291,660.307373 776.420166,675.794128 
	C790.940247,688.889343 804.084351,703.115601 815.224365,719.230713 
	C829.750122,740.243591 838.838745,763.469421 843.931091,788.342712 
	C848.592346,811.110229 849.537231,834.180054 848.858643,857.340393 
	C848.771545,860.311707 848.101562,863.265808 847.568604,866.665344 
	C835.747314,864.944580 824.001465,863.055542 812.383118,860.570312 
	C790.372681,855.862061 768.277466,851.416992 746.511597,845.735779 
	C724.132812,839.894653 702.054382,832.872375 679.943909,826.045349 
	C667.922119,822.333435 656.101440,817.968140 644.206238,813.850952 
	C642.971680,813.423645 641.847351,812.677856 640.299194,812.033691 
	C638.058350,807.914490 635.830750,803.964417 634.387878,799.745972 
	C629.611633,785.782471 619.324158,775.199097 612.082031,762.757202 
	C605.987061,752.286255 599.732544,741.903137 593.285400,731.646606 
	C592.061401,729.699402 589.604675,728.527100 586.968933,726.889160 
	C585.829773,725.122009 584.988586,723.427124 585.117859,721.809753 
	C586.207214,708.174866 587.474121,694.554260 588.831665,680.612854 
	C596.383423,671.965576 603.557983,663.411987 611.252930,655.355469 
	C623.213257,642.833130 632.053528,628.745178 636.211975,611.729553 
	C639.726013,597.350891 644.005005,583.160461 647.737427,568.832581 
	C648.442017,566.127930 649.378479,564.694458 652.337280,564.932495 
	C658.677368,565.442505 663.008362,562.022095 664.161011,556.358032 
	C666.872681,543.033264 668.727234,529.534180 670.928650,516.105591 
	C670.424683,516.023743 669.920715,515.941833 669.416809,515.859924 
	C664.944519,522.573303 660.472290,529.286621 655.945984,535.617310 
	C664.703369,512.500488 671.513733,489.264069 673.497620,464.824829 
	C674.691650,450.115875 674.093079,435.530426 671.011658,422.516998 
	C665.436584,435.131653 660.185730,448.985504 653.354370,462.010345 
	C642.941223,481.864136 629.177612,499.420380 613.000122,515.005798 
	C612.941589,514.945251 612.821472,514.827087 612.803345,514.455688 
	C613.511719,512.428650 614.253052,510.779266 614.962280,509.116211 
	C617.670105,502.766235 620.367737,496.411896 623.236023,489.984924 
	C623.240295,489.909119 623.077820,489.907623 622.574829,489.944092 
	C617.849792,493.351959 613.465271,496.721924 609.015625,500.024841 
	C608.950500,499.957794 608.815125,499.828888 608.804932,499.434509 
	C617.572693,470.759399 621.392151,441.682861 622.707214,412.162018 
	C616.476440,436.590332 606.617249,459.559906 595.530884,482.406799 
	C596.899353,469.109619 598.228333,456.195801 599.557373,443.281952 
	C599.048950,443.220306 598.540466,443.158691 598.032043,443.097046 
	C597.047363,445.372711 596.087891,447.659698 595.070923,449.920868 
	C594.047974,452.195068 592.967957,454.443542 591.384460,457.835083 
	C590.414856,454.210938 589.755798,451.992981 589.229553,449.743896 
	C579.763489,409.292023 560.721985,373.924744 532.662842,343.373810 
	C510.308350,319.034058 483.489899,300.115479 456.924133,280.841095 
	C439.519714,268.213593 420.738281,256.701660 412.799438,235.124710 
	C410.744659,241.342010 409.338409,247.887070 406.499420,253.736755 
	C399.381531,268.403076 392.024567,282.985504 384.020782,297.182861 
	C368.815002,324.155548 352.436005,350.491760 340.461639,379.170563 
	C333.433075,396.004150 327.082520,413.295807 328.429138,431.747040 
	C329.537628,446.935730 333.109497,461.941040 335.510864,477.040161 
	C337.414093,489.007050 339.197876,500.992981 341.018982,512.984314 
	C341.003265,512.998169 340.975677,513.029419 340.648010,512.941406 
	C324.426208,494.133606 311.773346,473.614441 304.925873,449.795044 
	C302.794739,442.381744 300.209869,435.098816 297.832703,427.756226 
	C297.047241,431.606842 297.361267,435.218567 297.480072,438.836731 
	C297.610718,442.814728 298.175781,446.913788 297.455536,450.754547 
	C296.187622,457.515747 296.952240,463.645905 300.680206,469.406982 
	C303.029724,473.037903 305.342163,476.693573 307.741089,480.291565 
	C314.108154,489.841156 321.237823,499.092438 323.359009,510.699188 
	C324.788727,518.522156 324.911774,526.576843 326.158844,534.442383 
	C327.426575,542.438171 328.974152,550.435425 331.142761,558.224976 
	C332.389648,562.703979 336.202637,565.299988 341.159485,564.870789 
	C344.652740,564.568237 346.117676,565.880920 346.967987,569.259399 
	C350.173737,581.996643 353.177643,594.821472 357.227875,607.298340 
	C360.745697,618.135071 364.587830,629.100952 370.135559,638.970520 
	C374.620300,646.948914 381.879608,653.361877 387.868164,660.502747 
	C392.433411,665.946533 396.935944,671.442871 401.371826,677.324829 
	C402.515656,694.107300 403.754028,710.480774 404.992432,726.854309 
	C402.190460,728.953613 398.558380,730.504211 396.740784,733.254150 
	C391.075928,741.824768 386.168365,750.892029 380.836609,759.687500 
	C373.459778,771.856567 365.753174,783.831177 358.616425,796.137634 
	C355.471802,801.560120 353.381927,807.594299 350.649658,813.617310 
M685.481812,482.482330 
	C685.481812,482.482330 685.509888,482.457092 685.481812,482.482330 
z"/>
<path fill="#ECECEC" opacity="1.000000" stroke="none" 
	d="
M693.006287,471.996826 
	C690.878479,474.781128 688.749878,477.583740 686.621338,480.386353 
	C686.448364,480.289856 686.275391,480.193359 686.102478,480.096863 
	C689.492188,469.997620 692.881897,459.898376 696.463806,449.226440 
	C696.905518,451.047485 697.203308,452.275085 697.747314,453.729126 
	C698.583862,459.743347 697.093994,465.010437 693.764404,470.406525 
	C693.336487,471.295074 693.152161,471.655060 692.967834,472.015045 
	C692.967834,472.015045 693.005493,472.015137 693.006287,471.996826 
z"/>
<path fill="#9F9F9F" opacity="1.000000" stroke="none" 
	d="
M693.252380,471.878967 
	C693.152161,471.655060 693.336487,471.295074 693.779175,470.757874 
	C693.870605,470.968048 693.703796,471.355469 693.252380,471.878967 
z"/>
<path fill="#ECECEC" opacity="1.000000" stroke="none" 
	d="
M590.002441,785.000000 
	C590.631287,794.511536 592.119385,804.063660 591.672485,813.524353 
	C591.108826,825.455933 587.729553,836.962952 582.926697,848.013611 
	C579.940796,854.883484 577.461060,855.654480 569.974365,855.360657 
	C556.550720,854.833801 543.081238,855.458923 529.631226,855.626892 
	C516.075012,855.796143 502.517395,855.913513 488.964081,856.217529 
	C482.801117,856.355713 476.905457,854.294006 470.354919,856.553406 
	C464.479340,858.579895 457.582428,857.777039 451.128540,857.965210 
	C440.341217,858.279846 429.537262,858.741516 418.762299,858.415344 
	C414.342865,858.281555 410.854645,855.056763 409.409821,850.624573 
	C406.592010,841.981018 403.841095,833.307129 401.396698,824.552490 
	C398.456390,814.021729 399.013458,803.303101 401.124084,792.297607 
	C404.530884,791.333374 407.225891,790.185669 409.960602,790.081543 
	C431.169373,789.274231 452.382385,788.483582 473.601532,788.085327 
	C482.884094,787.911072 492.185394,788.968872 501.475861,788.929016 
	C515.316345,788.869568 529.182495,788.763000 542.985901,787.872742 
	C555.471741,787.067444 568.020203,790.662964 580.431763,787.039368 
	C583.554260,786.127686 586.808655,785.667603 590.002441,785.000000 
z"/>
<path fill="#E5E5E5" opacity="1.000000" stroke="none" 
	d="
M590.000854,784.550232 
	C586.808655,785.667603 583.554260,786.127686 580.431763,787.039368 
	C568.020203,790.662964 555.471741,787.067444 542.985901,787.872742 
	C529.182495,788.763000 515.316345,788.869568 501.475861,788.929016 
	C492.185394,788.968872 482.884094,787.911072 473.601532,788.085327 
	C452.382385,788.483582 431.169373,789.274231 409.960602,790.081543 
	C407.225891,790.185669 404.530884,791.333374 401.409332,791.998840 
	C401.898621,777.157715 402.804535,762.315979 403.681122,747.472473 
	C403.775482,745.875061 403.699310,744.267456 404.277557,742.335449 
	C415.412415,741.670837 425.974640,741.397400 436.528961,740.942078 
	C438.408142,740.861084 440.311127,740.176941 442.105682,739.509338 
	C447.353821,737.557190 452.482666,736.581909 457.606323,739.953247 
	C458.625732,740.624084 460.079437,740.978210 461.308594,740.924316 
	C465.414856,740.744263 469.522644,740.412292 473.599426,739.897583 
	C474.464691,739.788391 475.201508,738.661987 476.339050,738.149292 
	C480.074890,739.526428 483.392639,741.065002 486.877289,741.935669 
	C499.404449,745.065857 510.997589,742.148010 522.082397,736.385742 
	C523.709717,737.503296 525.232056,738.814880 526.819885,738.899658 
	C536.575012,739.420532 546.344055,739.696960 556.110535,739.982971 
	C559.763794,740.089966 563.632507,739.235779 567.035645,740.165039 
	C574.346191,742.161316 580.269897,737.419678 586.997559,737.002441 
	C587.324036,737.730225 587.903748,738.445740 587.939575,739.187622 
	C588.663635,754.156738 589.325134,769.128906 590.000854,784.550232 
z"/>
<path fill="#DEDEDE" opacity="1.000000" stroke="none" 
	d="
M475.997559,738.004272 
	C475.201508,738.661987 474.464691,739.788391 473.599426,739.897583 
	C469.522644,740.412292 465.414856,740.744263 461.308594,740.924316 
	C460.079437,740.978210 458.625732,740.624084 457.606323,739.953247 
	C452.482666,736.581909 447.353821,737.557190 442.105682,739.509338 
	C440.311127,740.176941 438.408142,740.861084 436.528961,740.942078 
	C425.974640,741.397400 415.412415,741.670837 404.416443,742.011719 
	C404.219025,737.231018 404.458069,732.444946 404.844757,727.256592 
	C403.754028,710.480774 402.515656,694.107300 401.668518,677.403931 
	C412.964661,687.480042 423.762207,698.001648 434.803009,708.261353 
	C447.290863,719.865723 460.311493,730.798767 475.997559,738.004272 
z"/>
<path fill="#DCDCDC" opacity="1.000000" stroke="none" 
	d="
M602.982117,948.995422 
	C602.982117,948.995422 602.613464,949.128784 602.434692,949.207458 
	C599.069275,944.743103 593.973999,943.559509 589.160278,943.214233 
	C580.471802,942.591187 571.700745,942.691711 562.983521,943.013672 
	C553.743408,943.354980 544.508911,944.134155 535.303040,945.038391 
	C525.945374,945.957520 516.627808,947.281738 507.287628,948.385376 
	C504.830658,948.675781 502.354858,948.806763 499.438843,949.010010 
	C504.307556,945.635498 509.235687,941.208496 515.011108,939.073181 
	C538.204712,930.498352 561.608276,922.477478 585.047729,914.589111 
	C593.386597,911.782654 601.722656,912.985962 609.669678,917.787476 
	C607.518982,928.633667 605.250549,938.814575 602.982117,948.995422 
z"/>
<path fill="#DCDCDC" opacity="1.000000" stroke="none" 
	d="
M492.628479,947.987183 
	C492.978271,948.473145 492.983002,948.901550 492.984985,949.651123 
	C471.265259,947.639099 449.509186,945.612183 427.847076,942.848877 
	C416.258270,941.370605 405.055115,942.407349 393.179688,944.716003 
	C390.000702,935.025818 387.478027,925.602356 384.955383,916.178894 
	C391.919952,912.653137 399.140656,912.226807 406.467407,914.720459 
	C429.033417,922.400879 451.658386,929.924255 474.060791,938.058594 
	C480.482971,940.390503 486.227905,944.587646 492.628479,947.987183 
z"/>
<path fill="#DEDEDE" opacity="1.000000" stroke="none" 
	d="
M586.970215,736.683655 
	C580.269897,737.419678 574.346191,742.161316 567.035645,740.165039 
	C563.632507,739.235779 559.763794,740.089966 556.110535,739.982971 
	C546.344055,739.696960 536.575012,739.420532 526.819885,738.899658 
	C525.232056,738.814880 523.709717,737.503296 522.398682,736.242432 
	C525.188110,734.227966 527.806641,732.837341 530.272766,731.214966 
	C550.141968,718.143555 567.510498,702.187073 583.710693,684.874207 
	C585.141174,683.345459 587.018127,682.234375 588.687683,680.929321 
	C587.474121,694.554260 586.207214,708.174866 585.117859,721.809753 
	C584.988586,723.427124 585.829773,725.122009 586.610596,726.890503 
	C586.992249,727.441345 586.984497,727.882751 586.597046,728.673523 
	C582.752808,730.525146 582.909180,732.197876 585.982605,734.007996 
	C586.302673,734.793640 586.622803,735.579224 586.970215,736.683655 
z"/>
<path fill="#878787" opacity="1.000000" stroke="none" 
	d="
M384.592682,916.133850 
	C387.478027,925.602356 390.000702,935.025818 392.777771,944.723755 
	C393.011719,945.440308 392.991241,945.882385 392.937317,946.654663 
	C389.933380,948.324341 386.918915,949.574707 384.000397,951.019043 
	C373.647858,956.142090 363.111938,960.946045 353.049469,966.591064 
	C339.846100,973.997986 327.030853,982.096313 314.028595,989.863586 
	C313.199249,990.359070 312.197083,990.565308 310.872009,990.908936 
	C322.088898,978.340637 333.740784,965.798462 345.318909,953.188538 
	C353.861053,943.885071 362.043549,934.232422 370.921112,925.264771 
	C374.646118,921.502014 379.751923,919.106079 384.592682,916.133850 
z"/>
<path fill="#878787" opacity="1.000000" stroke="none" 
	d="
M603.342773,949.039673 
	C605.250549,938.814575 607.518982,928.633667 609.884033,918.055786 
	C613.437683,920.131104 617.419128,922.112732 620.266479,925.155640 
	C638.403992,944.537964 656.296448,964.149597 674.250854,983.703064 
	C675.585388,985.156555 676.772644,986.745178 678.145020,988.598389 
	C674.088440,986.702393 669.885376,984.533203 665.747681,982.245728 
	C651.888306,974.583984 638.107727,966.777771 624.183472,959.236450 
	C617.487915,955.610229 610.538147,952.453308 603.342773,949.039673 
z"/>
<path fill="#878787" opacity="1.000000" stroke="none" 
	d="
M298.786438,994.496460 
	C298.171936,993.433105 297.235138,991.946350 297.057617,990.373840 
	C296.464478,985.120361 296.143188,979.836121 295.717712,974.563660 
	C295.652893,973.760376 295.365417,972.899536 295.556427,972.162598 
	C298.023193,962.645264 300.588379,953.153381 303.067352,943.639160 
	C305.495728,934.318909 307.962219,925.054321 312.480103,916.411804 
	C313.638947,914.195007 313.018768,911.048218 313.248932,907.872864 
	C315.644470,903.072632 318.356628,897.637939 321.399872,892.123779 
	C316.005798,912.123901 309.580109,932.038513 304.800873,952.340820 
	C301.596252,965.954041 300.726501,980.116821 298.786438,994.496460 
z"/>
<path fill="#878787" opacity="1.000000" stroke="none" 
	d="
M676.337341,914.415161 
	C677.863525,916.427673 679.608337,918.713440 680.908569,921.228943 
	C681.719360,922.797485 681.809875,924.727051 682.308167,926.470398 
	C684.212585,933.132935 685.742432,939.938660 688.165405,946.408875 
	C692.684204,958.475586 693.437744,971.131470 694.607300,983.707214 
	C694.940552,987.291199 693.633179,991.027771 692.735474,994.816833 
	C692.786804,972.347778 686.400757,950.972229 680.623047,929.492126 
	C679.297729,924.564941 677.791199,919.686462 676.337341,914.415161 
z"/>
<path fill="#E5E5E5" opacity="1.000000" stroke="none" 
	d="
M585.994751,733.637939 
	C582.909180,732.197876 582.752808,730.525146 586.595337,729.004517 
	C586.651184,730.413391 586.329041,731.840698 585.994751,733.637939 
z"/>
<path fill="#878787" opacity="1.000000" stroke="none" 
	d="
M682.043213,992.653015 
	C681.794495,992.676697 681.501831,992.377136 681.130737,991.763123 
	C681.368042,991.742371 681.683655,992.036072 682.043213,992.653015 
z"/>
<path fill="#878787" opacity="1.000000" stroke="none" 
	d="
M683.322388,993.676270 
	C683.125427,993.771484 682.745239,993.606018 682.194092,993.177673 
	C682.395142,993.081726 682.767151,993.248657 683.322388,993.676270 
z"/>
<path fill="#F2F2F2" opacity="1.000000" stroke="none" 
	d="
M588.831665,680.612854 
	C587.018127,682.234375 585.141174,683.345459 583.710693,684.874207 
	C567.510498,702.187073 550.141968,718.143555 530.272766,731.214966 
	C527.806641,732.837341 525.188110,734.227966 522.323914,735.869385 
	C510.997589,742.148010 499.404449,745.065857 486.877289,741.935669 
	C483.392639,741.065002 480.074890,739.526428 476.339050,738.149292 
	C460.311493,730.798767 447.290863,719.865723 434.803009,708.261353 
	C423.762207,698.001648 412.964661,687.480042 401.763062,676.994934 
	C396.935944,671.442871 392.433411,665.946533 387.868164,660.502747 
	C381.879608,653.361877 374.620300,646.948914 370.135559,638.970520 
	C364.587830,629.100952 360.745697,618.135071 357.227875,607.298340 
	C353.177643,594.821472 350.173737,581.996643 346.967987,569.259399 
	C346.117676,565.880920 344.652740,564.568237 341.159485,564.870789 
	C336.202637,565.299988 332.389648,562.703979 331.142761,558.224976 
	C328.974152,550.435425 327.426575,542.438171 326.158844,534.442383 
	C324.911774,526.576843 324.788727,518.522156 323.359009,510.699188 
	C321.237823,499.092438 314.108154,489.841156 307.741089,480.291565 
	C305.342163,476.693573 303.029724,473.037903 300.680206,469.406982 
	C296.952240,463.645905 296.187622,457.515747 297.455536,450.754547 
	C298.175781,446.913788 297.610718,442.814728 297.480072,438.836731 
	C297.361267,435.218567 297.047241,431.606842 297.832703,427.756226 
	C300.209869,435.098816 302.794739,442.381744 304.925873,449.795044 
	C311.773346,473.614441 324.426208,494.133606 340.697144,513.097412 
	C341.180878,513.384888 341.287842,513.428406 341.394806,513.471863 
	C341.274750,513.304749 341.154724,513.137573 341.034698,512.970459 
	C339.197876,500.992981 337.414093,489.007050 335.510864,477.040161 
	C333.109497,461.941040 329.537628,446.935730 328.429138,431.747040 
	C327.082520,413.295807 333.433075,396.004150 340.461639,379.170563 
	C352.436005,350.491760 368.815002,324.155548 384.020782,297.182861 
	C392.024567,282.985504 399.381531,268.403076 406.499420,253.736755 
	C409.338409,247.887070 410.744659,241.342010 412.799438,235.124710 
	C420.738281,256.701660 439.519714,268.213593 456.924133,280.841095 
	C483.489899,300.115479 510.308350,319.034058 532.662842,343.373810 
	C560.721985,373.924744 579.763489,409.292023 589.229553,449.743896 
	C589.755798,451.992981 590.414856,454.210938 591.384460,457.835083 
	C592.967957,454.443542 594.047974,452.195068 595.070923,449.920868 
	C596.087891,447.659698 597.047363,445.372711 598.032043,443.097046 
	C598.540466,443.158691 599.048950,443.220306 599.557373,443.281952 
	C598.228333,456.195801 596.899353,469.109619 595.530884,482.406799 
	C606.617249,459.559906 616.476440,436.590332 622.707214,412.162018 
	C621.392151,441.682861 617.572693,470.759399 608.648926,499.525970 
	C608.695679,500.038513 608.888184,500.065186 609.080750,500.091858 
	C613.465271,496.721924 617.849792,493.351959 622.612061,489.983521 
	C622.989868,489.985046 623.069214,490.059204 623.069214,490.059204 
	C620.367737,496.411896 617.670105,502.766235 614.962280,509.116211 
	C614.253052,510.779266 613.511719,512.428650 612.609314,514.539185 
	C612.467590,515.225464 612.501709,515.456726 612.535889,515.688049 
	C612.710144,515.480835 612.884399,515.273621 613.058594,515.066345 
	C629.177612,499.420380 642.941223,481.864136 653.354370,462.010345 
	C660.185730,448.985504 665.436584,435.131653 671.011658,422.516998 
	C674.093079,435.530426 674.691650,450.115875 673.497620,464.824829 
	C671.513733,489.264069 664.703369,512.500488 655.748535,535.634644 
	C655.612976,536.237854 655.620789,536.440918 655.628601,536.644043 
	C655.752380,536.429321 655.876160,536.214661 656.000000,536.000000 
	C660.472290,529.286621 664.944519,522.573303 669.416809,515.859924 
	C669.920715,515.941833 670.424683,516.023743 670.928650,516.105591 
	C668.727234,529.534180 666.872681,543.033264 664.161011,556.358032 
	C663.008362,562.022095 658.677368,565.442505 652.337280,564.932495 
	C649.378479,564.694458 648.442017,566.127930 647.737427,568.832581 
	C644.005005,583.160461 639.726013,597.350891 636.211975,611.729553 
	C632.053528,628.745178 623.213257,642.833130 611.252930,655.355469 
	C603.557983,663.411987 596.383423,671.965576 588.831665,680.612854 
M654.407776,538.457336 
	C654.407776,538.457336 654.529297,538.360168 654.407776,538.457336 
z"/>
<path fill="#ECECEC" opacity="1.000000" stroke="none" 
	d="
M685.495850,482.469727 
	C685.509888,482.457092 685.481812,482.482330 685.495850,482.469727 
z"/>
<path fill="#F2F2F2" opacity="1.000000" stroke="none" 
	d="
M622.952576,489.945587 
	C623.077820,489.907623 623.240295,489.909119 623.236023,489.984924 
	C623.069214,490.059204 622.989868,489.985046 622.952576,489.945587 
z"/>
<path fill="#9F9F9F" opacity="1.000000" stroke="none" 
	d="
M613.000122,515.005798 
	C612.884399,515.273621 612.710144,515.480835 612.535889,515.688049 
	C612.501709,515.456726 612.467590,515.225464 612.627441,514.910645 
	C612.821472,514.827087 612.941589,514.945251 613.000122,515.005798 
z"/>
<path fill="#9F9F9F" opacity="1.000000" stroke="none" 
	d="
M609.015625,500.024841 
	C608.888184,500.065186 608.695679,500.038513 608.659119,499.920349 
	C608.815125,499.828888 608.950500,499.957794 609.015625,500.024841 
z"/>
<path fill="#9F9F9F" opacity="1.000000" stroke="none" 
	d="
M654.468506,538.408752 
	C654.529297,538.360168 654.407776,538.457336 654.468506,538.408752 
z"/>
<path fill="#9F9F9F" opacity="1.000000" stroke="none" 
	d="
M655.802612,536.017334 
	C655.876160,536.214661 655.752380,536.429321 655.628601,536.644043 
	C655.620789,536.440918 655.612976,536.237854 655.802612,536.017334 
z"/>
<path fill="#9F9F9F" opacity="1.000000" stroke="none" 
	d="
M341.018982,512.984314 
	C341.154724,513.137573 341.274750,513.304749 341.394806,513.471863 
	C341.287842,513.428406 341.180878,513.384888 341.024811,513.185425 
	C340.975677,513.029419 341.003265,512.998169 341.018982,512.984314 
z"/>
</svg>